HIERARCHY
ROOT Hips
{
	OFFSET 0.000000 0.000000 0.000000
	CHANNELS 6 Xposition Yposition Zposition Yrotation Zrotation Xrotation
	JOINT Spine
	{
		OFFSET 0.000000 -0.000000 1.489414
		CHANNELS 6 Xposition Yposition Zposition Yrotation Zrotation Xrotation
		JOINT Spine1
		{
			OFFSET 0.000000 -0.000001 4.064482
			CHANNELS 6 Xposition Yposition Zposition Yrotation Zrotation Xrotation
			JOINT Neck
			{
				OFFSET 0.000000 -0.000001 4.427754
				CHANNELS 6 Xposition Yposition Zposition Yrotation Zrotation Xrotation
				JOINT Head
				{
					OFFSET 0.000000 -0.363272 2.815356
					CHANNELS 6 Xposition Yposition Zposition Yrotation Zrotation Xrotation
					End Site
					{
						OFFSET 0.000000 -0.000001 3.632717
					}
				}
			}
			JOINT LeftShoulder
			{
				OFFSET 0.731535 0.096024 3.575184
				CHANNELS 6 Xposition Yposition Zposition Yrotation Zrotation Xrotation
				JOINT LeftArm
				{
					OFFSET 2.610319 0.000000 0.000000
					CHANNELS 6 Xposition Yposition Zposition Yrotation Zrotation Xrotation
					JOINT LeftForeArm
					{
						OFFSET 5.118421 0.000000 0.000000
						CHANNELS 6 Xposition Yposition Zposition Yrotation Zrotation Xrotation
						JOINT LeftHand
						{
							OFFSET 4.756909 0.000000 0.000000
							CHANNELS 6 Xposition Yposition Zposition Yrotation Zrotation Xrotation
							End Site
							{
								OFFSET 2.724539 0.000000 0.000000
							}
						}
					}
				}
			}
			JOINT RightShoulder
			{
				OFFSET -0.721442 0.096024 3.575184
				CHANNELS 6 Xposition Yposition Zposition Yrotation Zrotation Xrotation
				JOINT RightArm
				{
					OFFSET -2.610319 0.000000 0.000000
					CHANNELS 6 Xposition Yposition Zposition Yrotation Zrotation Xrotation
					JOINT RightForeArm
					{
						OFFSET -5.118422 0.000000 0.000000
						CHANNELS 6 Xposition Yposition Zposition Yrotation Zrotation Xrotation
						JOINT RightHand
						{
							OFFSET -4.756909 0.000000 0.000000
							CHANNELS 6 Xposition Yposition Zposition Yrotation Zrotation Xrotation
							End Site
							{
								OFFSET -2.724539 0.000000 0.000000
							}
						}
					}
				}
			}
		}
	}
	JOINT LeftUpLeg
	{
		OFFSET 1.816359 0.000000 0.000000
		CHANNELS 6 Xposition Yposition Zposition Yrotation Zrotation Xrotation
		JOINT LeftLeg
		{
			OFFSET 0.000000 0.000001 -7.638974
			CHANNELS 6 Xposition Yposition Zposition Yrotation Zrotation Xrotation
			JOINT LeftFoot
			{
				OFFSET 0.000000 0.000001 -8.008609
				CHANNELS 6 Xposition Yposition Zposition Yrotation Zrotation Xrotation
				JOINT LeftToeBase
				{
					OFFSET 0.000000 -2.724539 -1.180634
					CHANNELS 6 Xposition Yposition Zposition Yrotation Zrotation Xrotation
					End Site
					{
						OFFSET 0.000000 -0.726544 0.000000
					}
				}
			}
		}
	}
	JOINT RightUpLeg
	{
		OFFSET -1.816359 0.000000 0.000000
		CHANNELS 6 Xposition Yposition Zposition Yrotation Zrotation Xrotation
		JOINT RightLeg
		{
			OFFSET 0.000000 0.000001 -7.638974
			CHANNELS 6 Xposition Yposition Zposition Yrotation Zrotation Xrotation
			JOINT RightFoot
			{
				OFFSET 0.000000 0.000001 -8.008609
				CHANNELS 6 Xposition Yposition Zposition Yrotation Zrotation Xrotation
				JOINT RightToeBase
				{
					OFFSET 0.000000 -2.724539 -1.180634
					CHANNELS 6 Xposition Yposition Zposition Yrotation Zrotation Xrotation
					End Site
					{
						OFFSET 0.000000 -0.726544 0.000000
					}
				}
			}
		}
	}
}
MOTION
Frames: 7
Frame Time: 0.041667
1.266585 0.147483 16.001276 -0.805626 1.121939 3.682870 0.000000 -0.000000 1.489414 1.335305 -2.288409 -18.253407 -0.000000 -0.000002 4.064483 -4.661814 -1.457219 18.321108 -0.000000 -0.000001 4.427755 -6.534546 4.168142 9.879164 0.000001 -0.363272 2.815359 5.068221 6.627943 5.672355 0.731535 0.096024 3.575188 -20.666259 3.094177 -8.225653 2.610321 0.000000 0.000002 14.431807 -10.885346 0.398143 5.118421 -0.000000 -0.000002 -6.457373 -8.467900 -9.503650 4.756912 -0.000001 0.000002 7.101917 -1.842758 -8.911353 -0.721442 0.096024 3.575186 17.339409 -10.520530 -2.288152 -2.610319 -0.000001 -0.000002 -9.395609 20.223953 30.342815 -5.118419 -0.000001 -0.000001 112.275606 53.836326 -68.472715 -4.756911 0.000001 0.000002 34.290900 3.806773 4.580110 1.816359 -0.000000 -0.000000 2.250415 -2.114353 -6.903355 -0.000000 0.000001 -7.638973 -1.343545 1.569537 13.562142 -0.000000 0.000001 -8.008608 -0.593286 21.656284 -5.955485 -0.000001 -2.724539 -1.180634 0.000001 -0.000002 0.000002 -1.816359 -0.000000 0.000000 -1.138114 0.892286 -5.828026 0.000000 0.000001 -7.638973 -1.675877 -1.139815 12.774061 -0.000000 0.000001 -8.008610 -3.598813 -20.872054 -13.050445 0.000000 -2.724539 -1.180634 -0.000001 0.000001 -0.000001 
1.272045 0.150490 16.002228 -0.830385 1.123616 3.756902 -0.000000 -0.000000 1.489413 1.337660 -2.285899 -18.224032 0.000000 -0.000002 4.064483 -4.643959 -1.449868 18.236685 0.000000 -0.000000 4.427752 -6.522723 4.191042 9.841471 -0.000000 -0.363274 2.815359 5.068490 6.646175 5.659310 0.731535 0.096024 3.575184 -20.643301 3.113666 -8.202439 2.610319 -0.000000 -0.000003 14.437627 -10.920477 0.277948 5.118423 -0.000000 0.000002 -6.428354 -8.473010 -9.448493 4.756910 -0.000000 0.000003 7.111102 -1.837722 -8.858207 -0.721442 0.096025 3.575185 17.364014 -10.486295 -2.280073 -2.610319 -0.000000 -0.000002 -9.432811 20.147514 30.397849 -5.118419 -0.000002 -0.000002 112.383386 53.746195 -68.535730 -4.756909 0.000003 0.000002 34.294445 3.732351 4.544576 1.816359 0.000000 -0.000001 2.270316 -2.125882 -7.488149 0.000000 0.000001 -7.638974 -1.226132 1.284411 14.545363 -0.000000 0.000001 -8.008609 -0.539386 21.961913 -6.288044 -0.000000 -2.724539 -1.180634 0.000001 0.000000 0.000003 -1.816359 0.000000 -0.000001 -1.043531 0.901428 -5.921395 0.000000 0.000001 -7.638975 -1.770676 -1.139381 12.797180 -0.000000 0.000001 -8.008608 -3.582235 -20.888984 -13.057656 -0.000000 -2.724539 -1.180633 0.000001 0.000002 0.000001 
1.278333 0.154317 16.003475 -0.855927 1.141299 3.832005 -0.000000 -0.000000 1.489415 1.338978 -2.293189 -18.171647 0.000000 -0.000001 4.064483 -4.625993 -1.445076 18.130022 -0.000000 -0.000001 4.427752 -6.491280 4.214172 9.780272 -0.000000 -0.363272 2.815351 5.044121 6.656423 5.674810 0.731535 0.096024 3.575182 -20.628619 3.123848 -8.181906 2.610318 0.000000 -0.000001 14.461732 -10.920987 0.263725 5.118423 -0.000000 -0.000001 -6.431655 -8.496693 -9.464272 4.756914 0.000001 -0.000002 7.096880 -1.831940 -8.872995 -0.721442 0.096024 3.575181 17.375349 -10.492012 -2.285954 -2.610318 -0.000000 -0.000007 -9.448182 20.119017 30.437785 -5.118419 -0.000001 0.000001 112.469474 53.684413 -68.567484 -4.756908 0.000000 -0.000000 34.258610 3.698311 4.540629 1.816359 -0.000000 0.000000 2.298424 -2.106902 -8.134330 -0.000000 0.000001 -7.638974 -1.130316 1.050797 15.653766 0.000000 0.000001 -8.008609 -0.662889 22.122477 -6.700503 -0.000000 -2.724539 -1.180634 -0.000000 -0.000001 0.000002 -1.816359 -0.000000 0.000001 -0.943915 0.911509 -6.018728 -0.000000 0.000001 -7.638976 -1.864394 -1.183474 12.813159 -0.000000 0.000001 -8.008608 -3.583865 -20.893871 -13.053596 -0.000000 -2.724539 -1.180634 -0.000000 0.000002 -0.000001 
1.285880 0.158497 16.004795 -0.882798 1.188850 3.903924 0.000000 -0.000000 1.489416 1.313719 -2.314095 -18.112845 0.000000 -0.000001 4.064483 -4.565873 -1.439460 18.023467 -0.000000 -0.000001 4.427757 -6.473699 4.232462 9.727243 0.000000 -0.363273 2.815355 5.033598 6.665556 5.653403 0.731535 0.096024 3.575184 -20.631368 3.141744 -8.138933 2.610320 0.000000 -0.000001 14.486164 -10.946076 0.225386 5.118423 -0.000000 -0.000000 -6.435143 -8.499251 -9.477646 4.756910 0.000001 0.000003 7.119857 -1.791616 -8.888099 -0.721442 0.096024 3.575190 17.373595 -10.497361 -2.259140 -2.610320 -0.000000 -0.000001 -9.437766 20.104040 30.315979 -5.118419 -0.000002 -0.000001 112.503864 53.614109 -69.243181 -4.756910 0.000001 -0.000000 32.821450 6.706866 2.979375 1.816359 -0.000000 0.000002 2.317803 -2.192775 -8.839037 -0.000000 0.000001 -7.638974 -0.961737 0.694490 16.893527 0.000000 0.000001 -8.008608 -0.543869 22.527130 -7.355246 0.000000 -2.724538 -1.180634 -0.000001 -0.000001 0.000001 -1.816359 -0.000000 0.000002 -0.836138 0.920199 -6.114546 0.000000 0.000001 -7.638971 -1.877993 -1.605627 12.822034 -0.000000 0.000001 -8.008610 -3.549015 -20.543320 -13.005677 -0.000000 -2.724539 -1.180634 0.000000 -0.000000 0.000000 
1.293861 0.162593 16.006151 -0.897200 1.248172 3.979012 0.000000 -0.000000 1.489415 1.286925 -2.324037 -18.063243 -0.000000 -0.000001 4.064482 -4.521052 -1.433609 17.934562 -0.000000 -0.000001 4.427753 -6.460331 4.226351 9.656996 -0.000000 -0.363272 2.815355 5.036080 6.652480 5.635657 0.731534 0.096024 3.575184 -20.622093 3.117193 -8.100446 2.610322 -0.000000 0.000001 14.496016 -10.953423 0.181690 5.118422 -0.000001 -0.000002 -6.458704 -8.498463 -9.471924 4.756911 -0.000000 0.000002 7.150442 -1.830540 -8.877748 -0.721442 0.096024 3.575184 17.371505 -10.489538 -2.297112 -2.610319 -0.000000 0.000001 -9.426298 20.036812 30.278850 -5.118420 0.000000 0.000001 112.742401 53.761594 -68.823834 -4.756910 0.000000 -0.000001 34.353755 3.583142 4.693457 1.816359 -0.000000 0.000001 2.362578 -2.203342 -9.564849 0.000000 0.000001 -7.638974 -0.847705 0.431396 18.227989 0.000000 0.000001 -8.008608 -0.477964 22.720669 -8.093476 -0.000000 -2.724539 -1.180634 -0.000000 0.000001 0.000001 -1.816359 -0.000000 -0.000000 -0.738795 0.930568 -6.216787 0.000000 0.000001 -7.638973 -1.976745 -1.659358 12.856250 -0.000000 0.000001 -8.008608 -3.577311 -20.571041 -13.012064 -0.000000 -2.724539 -1.180633 0.000001 -0.000001 0.000000 
1.303928 0.167451 16.007917 -0.900165 1.335896 4.050782 0.000000 -0.000000 1.489416 1.236312 -2.339835 -17.992619 0.000000 -0.000001 4.064483 -4.469316 -1.429279 17.827806 0.000000 -0.000001 4.427753 -6.441615 4.219336 9.577876 -0.000000 -0.363271 2.815356 5.030909 6.635463 5.617102 0.731535 0.096024 3.575187 -20.615495 3.114563 -8.056858 2.610319 0.000000 -0.000005 14.508951 -11.016386 0.055953 5.118422 0.000000 0.000001 -6.448433 -8.465497 -9.467953 4.756910 0.000001 -0.000002 7.170482 -1.808374 -8.877469 -0.721442 0.096024 3.575184 17.392252 -10.502475 -2.246514 -2.610320 -0.000001 -0.000001 -9.421100 19.953185 30.276787 -5.118419 -0.000001 -0.000001 112.830115 53.649053 -68.769172 -4.756909 0.000003 0.000003 34.367377 3.561011 4.711579 1.816359 -0.000000 0.000001 2.338182 -2.467883 -10.293845 -0.000000 0.000001 -7.638975 -0.666045 0.399409 19.447814 0.000000 0.000001 -8.008609 -0.497469 22.880792 -8.672566 -0.000000 -2.724538 -1.180633 0.000001 -0.000005 0.000003 -1.816359 -0.000000 0.000000 -0.653036 0.939481 -6.306898 -0.000000 0.000001 -7.638975 -2.099452 -1.560831 12.882205 -0.000000 0.000001 -8.008610 -3.586523 -20.772584 -13.007968 0.000000 -2.724539 -1.180633 -0.000001 -0.000001 0.000001 
1.314385 0.170765 16.009632 -0.902702 1.444408 4.128226 0.000000 -0.000000 1.489416 1.199144 -2.376784 -17.960126 0.000000 -0.000001 4.064482 -4.453658 -1.438673 17.763507 -0.000001 -0.000001 4.427751 -6.401468 4.216639 9.499448 -0.000001 -0.363272 2.815358 5.037601 6.618433 5.565478 0.731534 0.096024 3.575181 -20.595273 3.095849 -8.016613 2.610321 0.000000 0.000002 14.539690 -11.043441 0.002798 5.118422 -0.000000 -0.000002 -6.478870 -8.454880 -9.489392 4.756910 0.000000 0.000002 7.194008 -1.853332 -8.894080 -0.721442 0.096024 3.575182 17.416086 -10.515034 -2.236827 -2.610320 -0.000000 -0.000000 -9.381903 19.865530 30.223672 -5.118420 -0.000002 -0.000001 112.900022 53.481600 -69.519605 -4.756909 0.000001 0.000002 32.841588 6.672223 2.967052 1.816359 0.000000 0.000003 2.298089 -2.722420 -10.973821 -0.000000 0.000001 -7.638975 -0.383086 0.280783 20.533418 0.000000 0.000001 -8.008608 -0.867371 23.135176 -9.071285 -0.000000 -2.724538 -1.180635 -0.000000 0.000002 0.000001 -1.816359 0.000000 0.000002 -0.586615 0.948784 -6.393109 -0.000000 0.000001 -7.638974 -2.083216 -1.922080 12.876365 -0.000000 0.000001 -8.008608 -3.597895 -20.540831 -12.961349 -0.000000 -2.724539 -1.180634 -0.000001 0.000002 0.000000 
